<?xml version="1.0" standalone="no"?>
<!DOCTYPE svg PUBLIC "-//W3C//DTD SVG 20010904//EN"
 "http://www.w3.org/TR/2001/REC-SVG-20010904/DTD/svg10.dtd">
<svg version="1.0" xmlns="http://www.w3.org/2000/svg"
 width="711.000000pt" height="711.000000pt" viewBox="0 0 711.000000 711.000000"
 preserveAspectRatio="xMidYMid meet">
<metadata>
Created by potrace 1.14, written by Peter Selinger 2001-2017
</metadata>
<g transform="translate(0.000000,711.000000) scale(0.100000,-0.100000)"
fill="#000000" stroke="none">
<path d="M4788 6662 l-56 -3 -1 -812 c0 -447 0 -839 0 -872 l-1 -61 -562 1
-563 0 0 848 0 847 -75 1 c-596 6 -1663 3 -1668 -6 -4 -5 -7 -932 -8 -2060 -1
-1127 -2 -2053 -3 -2057 0 -5 -417 -8 -924 -8 l-924 0 3 -82 c2 -46 5 -99 8
-118 13 -94 28 -179 37 -215 6 -22 12 -47 14 -55 2 -8 18 -58 35 -110 169
-495 552 -897 1040 -1090 118 -47 204 -71 380 -105 125 -25 427 -24 565 0 210
37 361 87 540 178 111 56 192 109 319 207 98 76 356 364 356 398 0 6 3 12 8
14 25 11 145 250 192 383 27 77 40 124 66 240 29 125 36 265 37 797 l2 458
563 0 562 0 1 -52 c0 -29 1 -636 2 -1348 l2 -1295 870 0 870 0 3 2990 2 2990
-817 0 c-450 0 -843 -1 -875 -3z"/>
</g>
</svg>
